<?xml version="1.0" encoding="UTF-8"?>
<svg width="38px" height="38px" viewBox="0 0 38 38" version="1.1" xmlns="http://www.w3.org/2000/svg" xmlns:xlink="http://www.w3.org/1999/xlink">
    <!-- Generator: sketchtool 54.1 (76490) - https://sketchapp.com -->
    <title>B7F6BF6D-52C4-4381-AC13-287FA699EB8F</title>
    <desc>Created with sketchtool.</desc>
    <g id="Page-1" stroke="none" stroke-width="1" fill="none" fill-rule="evenodd" stroke-linecap="round">
        <g id="Exercise" transform="translate(-608.000000, -476.000000)" stroke="#FFFFFF" stroke-width="2">
            <g id="artwork" transform="translate(16.000000, 24.000000)">
                <g id="Stacked-Group" transform="translate(19.000000, 405.000000)">
                    <g id="Wheater/Day" transform="translate(563.000000, 12.000000)">
                        <path d="M29.0068822,35.365517 L29.0068822,39.7517206 L29.0068822,35.365517 Z M29.0068822,68.2620439 L29.0068822,72.6482474 L29.0068822,68.2620439 Z M47.6482474,54.0068822 L43.2620439,54.0068822 L47.6482474,54.0068822 Z M14.7517206,54.0068822 L10.365517,54.0068822 L14.7517206,54.0068822 Z M42.188318,67.188318 L39.0868037,64.0868037 L42.188318,67.188318 Z M18.9269607,43.9269607 L15.8254464,40.8254464 L18.9269607,43.9269607 Z M15.8254464,67.188318 L18.9269607,64.0868037 L15.8254464,67.188318 Z M39.0868037,43.9269607 L42.188318,40.8254464 L39.0868037,43.9269607 Z M29.0068822,65.7034251 C22.241394,65.7034251 16.7568822,60.4667045 16.7568822,54.0068822 C16.7568822,47.5470599 22.241394,42.3103393 29.0068822,42.3103393 C35.7723704,42.3103393 41.2568822,47.5470599 41.2568822,54.0068822 C41.2568822,60.4667045 35.7723704,65.7034251 29.0068822,65.7034251 Z" id="Combined-Shape"></path>
                    </g>
                </g>
            </g>
        </g>
    </g>
</svg>