<?xml version="1.0" encoding="UTF-8"?>
<svg width="54px" height="32px" viewBox="0 0 54 32" version="1.1" xmlns="http://www.w3.org/2000/svg" xmlns:xlink="http://www.w3.org/1999/xlink">
    <!-- Generator: sketchtool 54.1 (76490) - https://sketchapp.com -->
    <title>FB584461-9A3D-4D2F-B57F-AD7E216431DC</title>
    <desc>Created with sketchtool.</desc>
    <g id="Page-1" stroke="none" stroke-width="1" fill="none" fill-rule="evenodd">
        <g id="Exercise" transform="translate(-179.000000, -476.000000)" fill="#FFFFFF">
            <g id="artwork" transform="translate(16.000000, 24.000000)">
                <g id="Stacked-Group" transform="translate(19.000000, 405.000000)">
                    <g id="Wheater/Day" transform="translate(143.000000, 12.000000)">
                        <path d="M10.794513,66.8774748 C5.56711774,66.5338728 1.70568182,62.6615846 1.70568182,58.259749 C1.70568182,52.927654 5.94444049,48.8970585 11.5519156,48.8970585 C11.8912772,48.8970585 12.2276459,48.9167918 12.559779,48.9553233 C13.9146831,41.4441887 20.6161093,35.9333333 28.9721753,35.9333333 C35.8744142,35.9333333 41.9266519,40.3836229 44.0601598,46.7365961 C44.0801692,46.7364905 44.1001917,46.7364377 44.1202273,46.7364377 C49.9764539,46.7364377 54.7238636,51.2507046 54.7238636,56.8193351 C54.7238636,62.1458079 50.3803685,66.5076235 44.8776299,66.876907 L44.8776299,66.9022324 L10.794513,66.9022324 L10.794513,66.8774748 Z" id="Oval-1"></path>
                    </g>
                </g>
            </g>
        </g>
    </g>
</svg>