<?xml version="1.0" encoding="UTF-8"?>
<svg width="17px" height="23px" viewBox="0 0 17 23" version="1.1" xmlns="http://www.w3.org/2000/svg" xmlns:xlink="http://www.w3.org/1999/xlink">
    <!-- Generator: sketchtool 54.1 (76490) - https://sketchapp.com -->
    <title>DE687A4A-BFBA-4329-A8DA-CF62CD81B6AA</title>
    <desc>Created with sketchtool.</desc>
    <g id="Page-1" stroke="none" stroke-width="1" fill="none" fill-rule="evenodd">
        <g id="Exercise" transform="translate(-334.000000, -43.000000)">
            <g id="artwork" transform="translate(16.000000, 24.000000)">
                <g id="Top-content" transform="translate(312.000000, 0.000000)">
                    <g id="Location" transform="translate(3.000000, 0.000000)">
                        <g id="placeholder" transform="translate(0.000000, 19.000000)">
                            <g id="Pin_icon">
                                <rect id="Clip" x="0" y="0" width="23" height="23"></rect>
                                <path d="M16.9410333,2.34892727 C15.4522703,0.834272727 13.4727334,0 11.3674203,0 C9.2616961,0 7.28257022,0.834272727 5.79380721,2.34892727 C3.03865025,5.15158182 2.69625942,10.4248545 5.05230293,13.6197636 L11.3674203,22.8983818 L17.6730838,13.6327273 C20.0385811,10.4248545 19.6961903,5.15158182 16.9410333,2.34892727 Z M11.4401732,10.8727273 C9.85399524,10.8727273 8.5629393,9.55921818 8.5629393,7.94545455 C8.5629393,6.33169091 9.85399524,5.01818182 11.4401732,5.01818182 C13.0263511,5.01818182 14.3174071,6.33169091 14.3174071,7.94545455 C14.3174071,9.55921818 13.0263511,10.8727273 11.4401732,10.8727273 Z" id="Shape" fill="#FFFFFF" fill-rule="nonzero"></path>
                            </g>
                        </g>
                    </g>
                </g>
            </g>
        </g>
    </g>
</svg>