<?xml version="1.0" encoding="UTF-8"?>
<svg width="54px" height="42px" viewBox="0 0 54 42" version="1.1" xmlns="http://www.w3.org/2000/svg" xmlns:xlink="http://www.w3.org/1999/xlink">
    <!-- Generator: sketchtool 54.1 (76490) - https://sketchapp.com -->
    <title>9DE2B4CD-3972-4838-B373-CFF6CF63F8AB</title>
    <desc>Created with sketchtool.</desc>
    <g id="Page-1" stroke="none" stroke-width="1" fill="none" fill-rule="evenodd">
        <g id="Exercise" transform="translate(-494.000000, -476.000000)" fill="#FFFFFF">
            <g id="artwork" transform="translate(16.000000, 24.000000)">
                <g id="Stacked-Group" transform="translate(19.000000, 405.000000)">
                    <g id="Wheater/Day" transform="translate(458.000000, 12.000000)">
                        <path d="M10.2571429,66.3069523 C4.93294399,65.9593216 1,62.041632 1,57.5881862 C1,52.193574 5.3172542,48.115721 11.0285714,48.115721 C11.3742175,48.115721 11.7168152,48.1356856 12.055099,48.1746689 C13.4350939,40.5754684 20.2606206,35 28.7714286,35 C35.8014866,35 41.9658028,39.5024679 44.1388201,45.9299277 C44.1592001,45.929821 44.1795934,45.9297675 44.2,45.9297675 C50.1646753,45.9297675 55,50.4969628 55,56.1308838 C55,61.5198079 50.5760697,65.9327645 44.9714286,66.3063778 L44.9714286,66.3320002 L10.2571429,66.3320002 L10.2571429,66.3069523 Z M17.9714286,71.1991166 C17.1193321,71.1991166 16.4285714,70.5466601 16.4285714,69.7418142 C16.4285714,68.9369684 17.1193321,68.2845119 17.9714286,68.2845119 C18.823525,68.2845119 19.5142857,68.9369684 19.5142857,69.7418142 C19.5142857,70.5466601 18.823525,71.1991166 17.9714286,71.1991166 Z M24.9142857,71.1991166 C24.0621892,71.1991166 23.3714286,70.5466601 23.3714286,69.7418142 C23.3714286,68.9369684 24.0621892,68.2845119 24.9142857,68.2845119 C25.7663822,68.2845119 26.4571429,68.9369684 26.4571429,69.7418142 C26.4571429,70.5466601 25.7663822,71.1991166 24.9142857,71.1991166 Z M31.8571429,71.1991166 C31.0050464,71.1991166 30.3142857,70.5466601 30.3142857,69.7418142 C30.3142857,68.9369684 31.0050464,68.2845119 31.8571429,68.2845119 C32.7092393,68.2845119 33.4,68.9369684 33.4,69.7418142 C33.4,70.5466601 32.7092393,71.1991166 31.8571429,71.1991166 Z M38.8,71.1991166 C37.9479035,71.1991166 37.2571429,70.5466601 37.2571429,69.7418142 C37.2571429,68.9369684 37.9479035,68.2845119 38.8,68.2845119 C39.6520965,68.2845119 40.3428571,68.9369684 40.3428571,69.7418142 C40.3428571,70.5466601 39.6520965,71.1991166 38.8,71.1991166 Z M35.7142857,77 C34.8621892,77 34.1714286,76.3538845 34.1714286,75.5568606 C34.1714286,74.7598367 34.8621892,74.1137212 35.7142857,74.1137212 C36.5663822,74.1137212 37.2571429,74.7598367 37.2571429,75.5568606 C37.2571429,76.3538845 36.5663822,77 35.7142857,77 Z M28.7714286,77 C27.9193321,77 27.2285714,76.3538845 27.2285714,75.5568606 C27.2285714,74.7598367 27.9193321,74.1137212 28.7714286,74.1137212 C29.623525,74.1137212 30.3142857,74.7598367 30.3142857,75.5568606 C30.3142857,76.3538845 29.623525,77 28.7714286,77 Z M21.8285714,77 C20.976475,77 20.2857143,76.3538845 20.2857143,75.5568606 C20.2857143,74.7598367 20.976475,74.1137212 21.8285714,74.1137212 C22.6806679,74.1137212 23.3714286,74.7598367 23.3714286,75.5568606 C23.3714286,76.3538845 22.6806679,77 21.8285714,77 Z" id="Snow"></path>
                    </g>
                </g>
            </g>
        </g>
    </g>
</svg>