<?xml version="1.0" encoding="UTF-8"?>
<svg width="54px" height="42px" viewBox="0 0 54 42" version="1.1" xmlns="http://www.w3.org/2000/svg" xmlns:xlink="http://www.w3.org/1999/xlink">
    <!-- Generator: sketchtool 54.1 (76490) - https://sketchapp.com -->
    <title>7FA044C4-6A97-45DB-9EC1-1C2E8DF38B8F</title>
    <desc>Created with sketchtool.</desc>
    <g id="Page-1" stroke="none" stroke-width="1" fill="none" fill-rule="evenodd">
        <g id="Exercise" transform="translate(-58.000000, -476.000000)" fill="#FFFFFF">
            <g id="artwork" transform="translate(16.000000, 24.000000)">
                <g id="Stacked-Group" transform="translate(19.000000, 405.000000)">
                    <g id="Selected">
                        <g id="Wheater/Day" transform="translate(20.000000, 12.000000)">
                            <g id="Weather" transform="translate(3.000000, 35.000000)">
                                <g id="Storm">
                                    <polygon id="Path-9" points="41.9491056 19.0909091 29 30.9180726 37.2648482 30.9180726 31.3131524 41.3636364 46.6086957 28.5300327 36.7158704 28.5300327"></polygon>
                                    <path d="M45.5441167,30.9420229 L49.8507251,27.1914024 L39.03125,27.1914024 L45.2839909,14.5408299 L26.6673743,31.1818182 L9.25714286,31.1818182 L9.25714286,31.1568904 C3.93294399,30.810926 0,26.9120148 0,22.4799154 C0,17.111161 4.3172542,13.0528541 10.0285714,13.0528541 C10.3742175,13.0528541 10.7168152,13.072723 11.055099,13.1115195 C12.4350939,5.54874385 19.2606206,0 27.7714286,0 C34.8014866,0 40.9658028,4.48088646 43.1388201,10.8775379 C43.1592001,10.8774316 43.1795934,10.8773784 43.2,10.8773784 C49.1646753,10.8773784 54,15.4226821 54,21.0295983 C54,25.8798186 50.3817344,29.935636 45.5441167,30.9420229 Z" id="Oval-1"></path>
                                    <path d="M7.25837274,38.902724 C6.97184677,39.1745378 6.97184677,39.615235 7.25837274,39.8870488 C7.54489872,40.1588625 8.00944911,40.1588625 8.29597508,39.8870488 L12.698149,35.7109124 C12.984675,35.4390986 12.984675,34.9984014 12.698149,34.7265876 C12.411623,34.4547738 11.9470726,34.4547738 11.6605467,34.7265876 L7.25837274,38.902724 Z" id="Line" fill-rule="nonzero"></path>
                                    <path d="M14.301851,38.902724 C14.015325,39.1745378 14.015325,39.615235 14.301851,39.8870488 C14.588377,40.1588625 15.0529274,40.1588625 15.3394533,39.8870488 L19.7416273,35.7109124 C20.0281532,35.4390986 20.0281532,34.9984014 19.7416273,34.7265876 C19.4551013,34.4547738 18.9905509,34.4547738 18.7040249,34.7265876 L14.301851,38.902724 Z" id="Line-2" fill-rule="nonzero"></path>
                                    <path d="M20.1714162,38.902724 C19.8848902,39.1745378 19.8848902,39.615235 20.1714162,39.8870488 C20.4579422,40.1588625 20.9224926,40.1588625 21.2090186,39.8870488 L25.6111925,35.7109124 C25.8977185,35.4390986 25.8977185,34.9984014 25.6111925,34.7265876 C25.3246665,34.4547738 24.8601161,34.4547738 24.5735901,34.7265876 L20.1714162,38.902724 Z" id="Line-3" fill-rule="nonzero"></path>
                                </g>
                            </g>
                        </g>
                    </g>
                </g>
            </g>
        </g>
    </g>
</svg>